<?xml version="1.0" encoding="us-ascii" standalone="no"?><svg xmlns="http://www.w3.org/2000/svg" xmlns:xlink="http://www.w3.org/1999/xlink" contentStyleType="text/css" height="488px" preserveAspectRatio="none" style="width:1214px;height:488px;background:#FFFFFF;" version="1.1" viewBox="0 0 1214 488" width="1214px" zoomAndPan="magnify"><defs/><g><line style="stroke:#181818;stroke-width:0.5;stroke-dasharray:5.0,5.0;" x1="27" x2="27" y1="82.6094" y2="406.125"/><line style="stroke:#181818;stroke-width:0.5;stroke-dasharray:5.0,5.0;" x1="152" x2="152" y1="82.6094" y2="406.125"/><line style="stroke:#181818;stroke-width:0.5;stroke-dasharray:5.0,5.0;" x1="448" x2="448" y1="82.6094" y2="406.125"/><line style="stroke:#181818;stroke-width:0.5;stroke-dasharray:5.0,5.0;" x1="723.5" x2="723.5" y1="82.6094" y2="406.125"/><line style="stroke:#181818;stroke-width:0.5;stroke-dasharray:5.0,5.0;" x1="1041" x2="1041" y1="82.6094" y2="406.125"/><line style="stroke:#181818;stroke-width:0.5;stroke-dasharray:5.0,5.0;" x1="1172" x2="1172" y1="82.6094" y2="406.125"/><text fill="#000000" font-family="sans-serif" font-size="14" lengthAdjust="spacing" textLength="39" x="5" y="79.5332">Admin</text><ellipse cx="27.5" cy="13.5" fill="#E2E2F0" rx="8" ry="8" style="stroke:#181818;stroke-width:0.5;"/><path d="M27.5,21.5 L27.5,48.5 M14.5,29.5 L40.5,29.5 M27.5,48.5 L14.5,63.5 M27.5,48.5 L40.5,63.5 " fill="none" style="stroke:#181818;stroke-width:0.5;"/><text fill="#000000" font-family="sans-serif" font-size="14" lengthAdjust="spacing" textLength="39" x="5" y="419.6582">Admin</text><ellipse cx="27.5" cy="431.2344" fill="#E2E2F0" rx="8" ry="8" style="stroke:#181818;stroke-width:0.5;"/><path d="M27.5,439.2344 L27.5,466.2344 M14.5,447.2344 L40.5,447.2344 M27.5,466.2344 L14.5,481.2344 M27.5,466.2344 L40.5,481.2344 " fill="none" style="stroke:#181818;stroke-width:0.5;"/><rect fill="#E2E2F0" height="31.6094" rx="2.5" ry="2.5" style="stroke:#181818;stroke-width:0.5;" width="131" x="87" y="50"/><text fill="#000000" font-family="sans-serif" font-size="14" lengthAdjust="spacing" textLength="117" x="94" y="71.5332">SpringAPIGateway</text><rect fill="#E2E2F0" height="31.6094" rx="2.5" ry="2.5" style="stroke:#181818;stroke-width:0.5;" width="131" x="87" y="405.125"/><text fill="#000000" font-family="sans-serif" font-size="14" lengthAdjust="spacing" textLength="117" x="94" y="426.6582">SpringAPIGateway</text><rect fill="#E2E2F0" height="31.6094" rx="2.5" ry="2.5" style="stroke:#181818;stroke-width:0.5;" width="119" x="389" y="50"/><text fill="#000000" font-family="sans-serif" font-size="14" lengthAdjust="spacing" textLength="105" x="396" y="71.5332">DeviceController</text><rect fill="#E2E2F0" height="31.6094" rx="2.5" ry="2.5" style="stroke:#181818;stroke-width:0.5;" width="119" x="389" y="405.125"/><text fill="#000000" font-family="sans-serif" font-size="14" lengthAdjust="spacing" textLength="105" x="396" y="426.6582">DeviceController</text><rect fill="#E2E2F0" height="31.6094" rx="2.5" ry="2.5" style="stroke:#181818;stroke-width:0.5;" width="182" x="632.5" y="50"/><text fill="#000000" font-family="sans-serif" font-size="14" lengthAdjust="spacing" textLength="168" x="639.5" y="71.5332">DeviceFactoryDataService</text><rect fill="#E2E2F0" height="31.6094" rx="2.5" ry="2.5" style="stroke:#181818;stroke-width:0.5;" width="182" x="632.5" y="405.125"/><text fill="#000000" font-family="sans-serif" font-size="14" lengthAdjust="spacing" textLength="168" x="639.5" y="426.6582">DeviceFactoryDataService</text><rect fill="#E2E2F0" height="31.6094" rx="2.5" ry="2.5" style="stroke:#181818;stroke-width:0.5;" width="161" x="961" y="50"/><text fill="#000000" font-family="sans-serif" font-size="14" lengthAdjust="spacing" textLength="147" x="968" y="71.5332">DeviceFactoryDataDao</text><rect fill="#E2E2F0" height="31.6094" rx="2.5" ry="2.5" style="stroke:#181818;stroke-width:0.5;" width="161" x="961" y="405.125"/><text fill="#000000" font-family="sans-serif" font-size="14" lengthAdjust="spacing" textLength="147" x="968" y="426.6582">DeviceFactoryDataDao</text><text fill="#000000" font-family="sans-serif" font-size="14" lengthAdjust="spacing" textLength="75" x="1132" y="79.5332">PostgresDB</text><path d="M1154.5,29 C1154.5,19 1172.5,19 1172.5,19 C1172.5,19 1190.5,19 1190.5,29 L1190.5,55 C1190.5,65 1172.5,65 1172.5,65 C1172.5,65 1154.5,65 1154.5,55 L1154.5,29 " fill="#E2E2F0" style="stroke:#181818;stroke-width:1.5;"/><path d="M1154.5,29 C1154.5,39 1172.5,39 1172.5,39 C1172.5,39 1190.5,39 1190.5,29 " fill="none" style="stroke:#181818;stroke-width:1.5;"/><text fill="#000000" font-family="sans-serif" font-size="14" lengthAdjust="spacing" textLength="75" x="1132" y="419.6582">PostgresDB</text><path d="M1154.5,432.7344 C1154.5,422.7344 1172.5,422.7344 1172.5,422.7344 C1172.5,422.7344 1190.5,422.7344 1190.5,432.7344 L1190.5,458.7344 C1190.5,468.7344 1172.5,468.7344 1172.5,468.7344 C1172.5,468.7344 1154.5,468.7344 1154.5,458.7344 L1154.5,432.7344 " fill="#E2E2F0" style="stroke:#181818;stroke-width:1.5;"/><path d="M1154.5,432.7344 C1154.5,442.7344 1172.5,442.7344 1172.5,442.7344 C1172.5,442.7344 1190.5,442.7344 1190.5,432.7344 " fill="none" style="stroke:#181818;stroke-width:1.5;"/><polygon fill="#181818" points="140.5,110.9609,150.5,114.9609,140.5,118.9609,144.5,114.9609" style="stroke:#181818;stroke-width:1.0;"/><line style="stroke:#181818;stroke-width:1.0;" x1="27.5" x2="146.5" y1="114.9609" y2="114.9609"/><text fill="#000000" font-family="sans-serif" font-size="13" lengthAdjust="spacing" textLength="80" x="34.5" y="110.1045">Create Device</text><polygon fill="#181818" points="436.5,141.3125,446.5,145.3125,436.5,149.3125,440.5,145.3125" style="stroke:#181818;stroke-width:1.0;"/><line style="stroke:#181818;stroke-width:1.0;" x1="152.5" x2="442.5" y1="145.3125" y2="145.3125"/><text fill="#000000" font-family="sans-serif" font-size="13" lengthAdjust="spacing" textLength="272" x="159.5" y="140.4561">Create Device (DeviceFactoryDataDto[], userId)</text><polygon fill="#181818" points="711.5,171.6641,721.5,175.6641,711.5,179.6641,715.5,175.6641" style="stroke:#181818;stroke-width:1.0;"/><line style="stroke:#181818;stroke-width:1.0;" x1="448.5" x2="717.5" y1="175.6641" y2="175.6641"/><text fill="#000000" font-family="sans-serif" font-size="13" lengthAdjust="spacing" textLength="251" x="455.5" y="170.8076">Create Device (DeviceFactoryDataBaseDto)</text><polygon fill="#181818" points="1029.5,202.0156,1039.5,206.0156,1029.5,210.0156,1033.5,206.0156" style="stroke:#181818;stroke-width:1.0;"/><line style="stroke:#181818;stroke-width:1.0;" x1="723.5" x2="1035.5" y1="206.0156" y2="206.0156"/><text fill="#000000" font-family="sans-serif" font-size="13" lengthAdjust="spacing" textLength="294" x="730.5" y="201.1592">Create Device (DeviceFactoryDataBaseDto, userId)</text><polygon fill="#181818" points="1160.5,232.3672,1170.5,236.3672,1160.5,240.3672,1164.5,236.3672" style="stroke:#181818;stroke-width:1.0;"/><line style="stroke:#181818;stroke-width:1.0;" x1="1041.5" x2="1166.5" y1="236.3672" y2="236.3672"/><text fill="#000000" font-family="sans-serif" font-size="13" lengthAdjust="spacing" textLength="70" x="1048.5" y="231.5107">Save Device</text><polygon fill="#181818" points="1052.5,262.7188,1042.5,266.7188,1052.5,270.7188,1048.5,266.7188" style="stroke:#181818;stroke-width:1.0;"/><line style="stroke:#181818;stroke-width:1.0;" x1="1046.5" x2="1171.5" y1="266.7188" y2="266.7188"/><text fill="#000000" font-family="sans-serif" font-size="13" lengthAdjust="spacing" textLength="51" x="1058.5" y="261.8623">Success</text><polygon fill="#181818" points="734.5,293.0703,724.5,297.0703,734.5,301.0703,730.5,297.0703" style="stroke:#181818;stroke-width:1.0;"/><line style="stroke:#181818;stroke-width:1.0;" x1="728.5" x2="1040.5" y1="297.0703" y2="297.0703"/><text fill="#000000" font-family="sans-serif" font-size="13" lengthAdjust="spacing" textLength="51" x="740.5" y="292.2139">Success</text><polygon fill="#181818" points="459.5,323.4219,449.5,327.4219,459.5,331.4219,455.5,327.4219" style="stroke:#181818;stroke-width:1.0;"/><line style="stroke:#181818;stroke-width:1.0;" x1="453.5" x2="722.5" y1="327.4219" y2="327.4219"/><text fill="#000000" font-family="sans-serif" font-size="13" lengthAdjust="spacing" textLength="108" x="465.5" y="322.5654">Success response</text><polygon fill="#181818" points="163.5,353.7734,153.5,357.7734,163.5,361.7734,159.5,357.7734" style="stroke:#181818;stroke-width:1.0;"/><line style="stroke:#181818;stroke-width:1.0;" x1="157.5" x2="447.5" y1="357.7734" y2="357.7734"/><text fill="#000000" font-family="sans-serif" font-size="13" lengthAdjust="spacing" textLength="108" x="169.5" y="352.917">Success response</text><polygon fill="#181818" points="38.5,384.125,28.5,388.125,38.5,392.125,34.5,388.125" style="stroke:#181818;stroke-width:1.0;"/><line style="stroke:#181818;stroke-width:1.0;" x1="32.5" x2="151.5" y1="388.125" y2="388.125"/><text fill="#000000" font-family="sans-serif" font-size="13" lengthAdjust="spacing" textLength="101" x="44.5" y="383.2686">Success resonse</text><!--SRC=[ZPBF2i8m3CRlVOeS5VG5F0ZgKBm9Eug7s0KfQ3lIEjdR6tLEjtRYgQN9z-kNFwY3OrWK5sDLYHoCDYNQ07d9nfuMk-q60zsmxWGpgeocbRE1tVbCd0YkyG6kCmoO4pzUVYTbw5GXvn4zmSxvS6BosL8fzVG6qtba2MQmOf9xGrDHWeZwLliY6CLMWjiV9d3rnDjYh292Iurh_8E-b0BbXpStmKZnfJt_i_lUUnpXVneir1ohjeLVWM4R-LLhydwG_gCxWzAe-Cx86Xc8iz9PJycX9FOZqgLMvBLWdUHdxXq0]--></g></svg>